<?xml version="1.0" encoding="utf-8"?>
<!-- Generator: Adobe Illustrator 24.1.1, SVG Export Plug-In . SVG Version: 6.00 Build 0)  -->
<svg version="1.1" id="Capa_1" focusable="false" xmlns="http://www.w3.org/2000/svg" xmlns:xlink="http://www.w3.org/1999/xlink"
	 x="0px" y="0px" viewBox="0 0 640 512" style="enable-background:new 0 0 640 512;" xml:space="preserve">
<style type="text/css">
	.st0{fill:#6A1B9A;}
</style>
<path class="st0" d="M320,384H128V224H64v256c0,17.7,14.3,32,32,32h256c17.7,0,32-14.3,32-32V224h-64V384z M634.6,142.2l-85.3-128
	c-6-8.9-16-14.2-26.7-14.2H117.4c-10.7,0-20.7,5.3-26.6,14.2l-85.3,128c-14.2,21.3,1,49.8,26.6,49.8H608
	C633.5,192,648.7,163.5,634.6,142.2z M512,496c0,8.8,7.2,16,16,16h32c8.8,0,16-7.2,16-16V224h-64V496z"/>
</svg>
